PathFileType	4	(X/Y/Z)	P:\Projects\LMB_grand_challenge_database\project_only\opensim\experimental_data\SixthCompetition/DM_ngait_og6_new.trc
DataRate	CameraRate	NumFrames	NumMarkers	Units	OrigDataRate	OrigDataStartFrame	OrigNumFrames
120	120	5	68	mm	120	256	342
Frame#	Time	Sternum			Neck			R_Shoulder			L_Shoulder			Xiphoid			Thoracic			R_Asis			L_Asis			R_Psis			L_Psis			Lumbar			R_Elbow			R_ElbowMedial			R_ShoulderAnterior			R_ShoulderPosterior			R_Wrist			R_Radius			R_Ulna			L_Elbow			L_ElbowMedial			L_ShoulderAnterior			L_ShoulderPosterior			L_Wrist			L_Ulna			L_Radius			L_Thigh_Superior			L_Thigh_Inferior			L_Thigh_Lateral			L_Knee_Lateral			L_Knee_Medial			L_Patella			L_Shank_Superior			L_Shank_Inferior			L_Shank_Lateral			L_Ankle_Lateral			L_Ankle_Medial			R_Thigh_Superior			R_Thigh_Inferior			R_Thigh_Lateral			R_Knee_Lateral			R_Knee_Medial			R_Patella			R_Shank_Superior			R_Shank_Inferior			R_Shank_Lateral			R_Ankle_Lateral			RankleMedial			R_Heel			R_Toe			R_Midfoot_Medial			R_Midfoot_Lateral			R_Hindfoot			R_Midfoot_Superior			R_ToeMedial			R_ToeLateral			L_Heel			L_Toe			L_Midfoot_Medial			L_Midfoot_Lateral			L_Hindfoot			L_Midfoot_Superior			L_ToeMedial			L_ToeLateral			Oglobal			Sacral			Xglobal			Yglobal			Zglobal			
		X1	Y1	Z1	X2	Y2	Z2	X3	Y3	Z3	X4	Y4	Z4	X5	Y5	Z5	X6	Y6	Z6	X7	Y7	Z7	X8	Y8	Z8	X9	Y9	Z9	X10	Y10	Z10	X11	Y11	Z11	X12	Y12	Z12	X13	Y13	Z13	X14	Y14	Z14	X15	Y15	Z15	X16	Y16	Z16	X17	Y17	Z17	X18	Y18	Z18	X19	Y19	Z19	X20	Y20	Z20	X21	Y21	Z21	X22	Y22	Z22	X23	Y23	Z23	X24	Y24	Z24	X25	Y25	Z25	X26	Y26	Z26	X27	Y27	Z27	X28	Y28	Z28	X29	Y29	Z29	X30	Y30	Z30	X31	Y31	Z31	X32	Y32	Z32	X33	Y33	Z33	X34	Y34	Z34	X35	Y35	Z35	X36	Y36	Z36	X37	Y37	Z37	X38	Y38	Z38	X39	Y39	Z39	X40	Y40	Z40	X41	Y41	Z41	X42	Y42	Z42	X43	Y43	Z43	X44	Y44	Z44	X45	Y45	Z45	X46	Y46	Z46	X47	Y47	Z47	X48	Y48	Z48	X49	Y49	Z49	X50	Y50	Z50	X51	Y51	Z51	X52	Y52	Z52	X53	Y53	Z53	X54	Y54	Z54	X55	Y55	Z55	X56	Y56	Z56	X57	Y57	Z57	X58	Y58	Z58	X59	Y59	Z59	X60	Y60	Z60	X61	Y61	Z61	X62	Y62	Z62	X63	Y63	Z63	X64	Y64	Z64	X65	Y65	Z65	X66	Y66	Z66	X67	Y67	Z67	X68	Y68	Z68	

257	4.541667	958.321	1468.97	211.965	1114.81	1389.55	184.129	1075.92	1413.5	364.434	995.631	1434.76	28.27	1137.68	1224.68	181.705	871.6369999999999	1276.73	211.378	1074.73	998.1079999999999	328.246	1063.48	993.383	49.253	866.6900000000001	1029.86	227.847	862.569	1028.05	149.859	865.206	1078.63	189.695	1052.66	1102.38	473.317	-0	0	0	-0	0	0	-0	0	0	1165.92	847.925	440.757	1158.35	859.336	397.457	1121.31	845.2670000000001	457.728	966.829	1103.18	-83.0393	-0	0	0	-0	0	0	-0	0	0	1049.7	847.284	-89.6464	1005.21	855.4400000000001	-107.166	1043.51	859.742	-43.6227	1040.45	827.0119999999999	12.0105	1142.22	624.742	21.2567	1161.24	723.67	49.8164	-0	0	0	-0	0	0	1200.17	523.201	63.1666	1089.66	487.493	18.3137	909.611	289.934	38.7798	-0	0	0	-0	0	0	-0	0	0	997.595	805.846	348.066	1012.32	590.958	295.896	1082	717.942	316.532	-0	0	0	-0	0	0	1086.38	508.159	217.582	967.175	395.41	300.634	947.448	189.113	277.806	1018.98	311.89	209.697	-0	0	0	-0	0	0	850.39	62.6962	219.717	1151.55	54.9426	222.83	1072.77	31.8511	170.592	1060.8	29.9251	287.235	950.9	28.9073	273.489	1014	119.903	224.404	1117.05	41.994	179.099	1110.36	41.4041	270.56	788.684	236.234	109.702	1017.75	49.3489	63.4766	952.028	80.7967	127.741	921.941	88.6062	17.5596	836.927	148.543	42.0755	952.409	181.969	73.81010000000001	982.955	54.6847	111.723	968.987	58.5313	17.8311	-0	0	0	864.63	1028.96	188.853	-200	0	0	-0	0	200	-0	200	0	
258	4.55	966.775	1469.07	212.171	1123.14	1389.68	183.776	1085.15	1414.12	364.525	1002.99	1434.68	28.4613	1145.85	1224.73	181.602	879.943	1276.97	212.275	1082.9	997.7430000000001	327.816	1070.88	993.807	49.0781	874.646	1030.45	228.179	870.29	1028.75	150.249	873.239	1079.26	190.19	1062.16	1102.94	473.337	-0	0	0	-0	0	0	-0	0	0	1178.19	849.372	440.253	1171.61	861.987	396.909	1133.8	846.676	456.552	966.621	1103.59	-82.262	-0	0	0	-0	0	0	-0	0	0	1045.61	846.744	-92.2016	1000.48	855.201	-107.636	1041.54	859.14	-45.852	1049.33	828.25	11.7377	1153.93	627.1319999999999	22.0272	1171.58	726.376	50.7122	-0	0	0	-0	0	0	1212.95	526.851	63.7895	1104.39	487.642	18.3258	930.067	285.336	37.222	-0	0	0	-0	0	0	-0	0	0	1004.54	805.2809999999999	348.309	1015.82	590.653	296.601	1086.51	716.944	316.81	-0	0	0	-0	0	0	1088.89	507.414	217.599	969.2569999999999	395.524	300.876	948.229	189.208	277.848	1020.33	311.796	209.737	-0	0	0	-0	0	0	850.5309999999999	62.9346	219.776	1151.69	54.7036	222.901	1072.81	31.613	170.524	1060.91	29.7112	287.174	950.86	28.8638	273.499	1014.04	119.711	224.364	1116.87	41.4933	179.065	1110.42	41.24	270.549	812.042	223.796	106.627	1049.52	49.2263	64.0009	982.5650000000001	76.4517	126.096	953.9	83.74639999999999	15.5008	864.551	139.858	39.6118	977.543	178.342	73.2529	1013.97	52.6007	111.41	1001.22	56.2137	17.7106	-0	0	0	872.468	1029.6	189.214	-200	0	0	-0	0	200	-0	200	0	
259	4.558333	975.318	1469.06	212.354	1131.55	1389.68	183.501	1094.13	1414.29	364.152	1010.71	1434.5	28.3898	1154.13	1224.57	181.495	887.342	1277.63	212.572	1090.76	998.0650000000001	328.157	1078.27	993.3200000000001	48.9757	882.495	1030.96	228.602	878.096	1029.31	150.575	881.127	1079.81	190.363	1071.92	1103.21	473.295	-0	0	0	-0	0	0	-0	0	0	1190.85	851.6559999999999	440.005	1184.71	864.127	396.146	1146.61	848.128	455.348	966.648	1103.82	-81.41889999999999	-0	0	0	-0	0	0	-0	0	0	1041.02	845.8150000000001	-94.0968	995.808	854.833	-107.573	1039.71	858.605	-47.8127	1058.16	829.2329999999999	11.4033	1165.49	629.343	23.1001	1181.58	728.66	51.652	-0	0	0	-0	0	0	1225.3	530.318	64.6909	1118.84	487.618	18.6024	952.231	277.628	36.5712	-0	0	0	-0	0	0	-0	0	0	1011.4	805.369	348.318	1020.65	590.242	296.827	1095.38	716.724	315.893	-0	0	0	-0	0	0	1091.19	506.222	217.292	971.491	395.563	300.762	949.071	189.465	277.908	1021.42	311.031	209.356	-0	0	0	-0	0	0	850.605	63.102	219.822	1151.73	54.3306	222.753	1072.73	31.2007	170.225	1061.02	29.4623	286.898	950.837	28.792	273.431	1014.31	119.517	224.065	1117.04	41.2508	178.998	1110.49	40.9849	270.371	835.4829999999999	212.079	103.089	1081.56	49.0861	64.21680000000001	1012.48	72.9935	125.343	985.274	78.95829999999999	14.3009	893.162	130.487	36.7392	1003.41	174.563	72.3978	1044.82	51.2794	111.49	1033.61	53.7357	17.2071	-0	0	0	880.295	1030.13	189.589	-200	0	0	-0	0	200	-0	200	0	
260	4.566667	984.011	1468.99	212.41	1139.91	1389.63	182.988	1103.02	1414.64	363.782	1018.32	1434.32	28.2702	1162.24	1224.4	181.287	896.8	1277.12	213.32	1098.81	997.904	327.795	1085.67	993.236	48.7318	890.385	1031.32	228.766	885.841	1029.77	150.811	889.08	1080.22	190.545	1082.07	1103.86	473.502	-0	0	0	-0	0	0	-0	0	0	1203.98	854.206	439.18	1197.6	866.285	395.283	1159.15	849.301	453.718	966.879	1104.38	-80.5454	-0	0	0	-0	0	0	-0	0	0	1036.42	845.0309999999999	-95.90430000000001	991.044	854.647	-107.517	1038.04	858.223	-50.0949	1066.89	829.884	11.0888	1176.4	631.563	23.8312	1191.36	730.724	52.8386	-0	0	0	-0	0	0	1237.11	533.753	65.5046	1133.35	487.206	19.1136	974.659	270.808	34.968	-0	0	0	-0	0	0	-0	0	0	1017.9	805.417	348.175	1024.58	590.192	296.828	1098.18	716.162	315.923	-0	0	0	-0	0	0	1094.11	505.831	217.74	973.692	395.612	300.868	949.984	189.723	277.904	1023.3	311.389	209.803	-0	0	0	-0	0	0	850.688	63.3062	219.809	1151.37	54.0965	222.6	1072.64	30.6938	169.924	1061.14	29.3752	286.622	950.889	28.8641	273.392	1014.68	119.382	223.575	1117.11	40.9592	178.869	1110.55	40.855	270.304	859.026	200.745	99.68129999999999	1113.51	48.9007	63.6623	1041.66	69.54689999999999	124.14	1015.7	74.5046	12.7498	921.864	121.567	33.734	1029.48	170.598	71.0883	1076.19	49.0674	110.337	1065.78	51.6072	16.1858	-0	0	0	888.1130000000001	1030.55	189.788	-200	0	0	-0	0	200	-0	200	0	
261	4.575	992.593	1468.94	212.406	1148.25	1389.33	182.689	1112	1414.79	363.678	1025.97	1433.82	28.1307	1170.43	1224	181.092	905.752	1277.13	214.083	1106.74	997.0549999999999	327.885	1093.23	993.287	48.5819	898.337	1031.58	229.187	893.682	1030.09	151.139	897.115	1080.5	191.034	1091.99	1104.12	473.481	-0	0	0	-0	0	0	-0	0	0	1216.5	856.076	438.172	1210.28	868.131	394.168	1171.62	850.4880000000001	452.474	967.5839999999999	1104.89	-79.2449	-0	0	0	-0	0	0	-0	0	0	1031.87	844.425	-97.60169999999999	986.0599999999999	854.263	-106.794	1035.47	857.398	-51.841	1074.9	830.551	10.64	1186.9	633.354	24.9721	1200.84	732.362	54.0227	-0	0	0	-0	0	0	1248.5	536.905	66.5625	1146.91	487.072	19.3847	997.2619999999999	264.013	33.0758	-0	0	0	-0	0	0	-0	0	0	1023.99	805.765	347.867	1028.2	590.107	297.026	1102.67	715.379	316.136	-0	0	0	-0	0	0	1097.07	504.997	217.832	975.909	395.747	301.18	950.939	190.133	278.116	1025.29	311.682	209.988	-0	0	0	-0	0	0	850.591	64.1414	220.329	1151.22	53.7123	222.403	1072.04	29.9153	169.271	1061.13	28.5935	286.027	950.9640000000001	28.8618	273.447	1015.17	119.043	223.288	1117.24	40.9929	178.745	1110.03	40.6517	270.224	883.9	188.756	97.5568	1145.01	49.05	62.9287	1072.58	66.8198	124.017	1046.61	69.00879999999999	12.5403	949.91	111.549	32.617	1055.52	166.456	69.5963	1107.71	47.4526	109.344	1098.01	49.4281	14.8045	-0	0	0	896.01	1030.83	190.163	-200	0	0	-0	0	200	-0	200	0	
